<svg xmlns="http://www.w3.org/2000/svg" width="267" height="247" fill="none" viewBox="0 0 267 247">
  <path fill="#000" d="M179.128 54.567a25.593 25.593 0 0 0-2.254-21.272c-4.735-8.131-13.518-13.152-23.023-13.152-1.873 0-3.74.195-5.571.582a26.24 26.24 0 0 0-8.871-6.43 26.552 26.552 0 0 0-10.762-2.277h-.229c-11.513 0-21.723 7.33-25.262 18.136a26.434 26.434 0 0 0-10.151 4.411 26.027 26.027 0 0 0-7.399 8.154 25.946 25.946 0 0 0-3.588 13.148c0 6.49 2.442 12.75 6.852 17.566a25.601 25.601 0 0 0-1.345 8.181c0 4.602 1.243 9.12 3.6 13.09a26.433 26.433 0 0 0 12.219 10.884 26.889 26.889 0 0 0 16.373 1.686 26.237 26.237 0 0 0 8.871 6.43 26.55 26.55 0 0 0 10.763 2.278h.234c11.519 0 21.726-7.331 25.265-18.147a26.443 26.443 0 0 0 10.151-4.411 26.015 26.015 0 0 0 7.399-8.154 25.898 25.898 0 0 0 3.582-13.137 26.01 26.01 0 0 0-6.853-17.565l-.001-.001Zm-39.604 54.618h-.027a19.87 19.87 0 0 1-12.613-4.509c.211-.112.418-.228.623-.348l20.98-11.957c.524-.294.959-.72 1.262-1.234a3.34 3.34 0 0 0 .463-1.692V60.242l8.867 5.052a.311.311 0 0 1 .173.24v24.168c-.013 10.745-8.837 19.461-19.728 19.483ZM97.1 91.307a19.243 19.243 0 0 1-2.647-9.727c0-1.114.098-2.23.29-3.328.156.092.428.256.624.367l20.979 11.957a3.453 3.453 0 0 0 3.447 0l25.614-14.594v10.122a.31.31 0 0 1-.127.25l-21.208 12.083a19.996 19.996 0 0 1-19.738-.006 19.64 19.64 0 0 1-7.234-7.125Zm-5.52-45.19a19.615 19.615 0 0 1 10.279-8.543c0 .178-.011.494-.011.714v23.934c0 .593.159 1.176.462 1.69.302.513.737.938 1.26 1.232l25.614 14.59-8.867 5.053a.321.321 0 0 1-.299.027L98.807 72.722a19.642 19.642 0 0 1-7.218-7.138 19.31 19.31 0 0 1-2.642-9.74c0-3.414.91-6.768 2.635-9.727h-.002Zm72.856 16.728-25.614-14.593 8.868-5.05a.322.322 0 0 1 .299-.027l21.21 12.082a19.63 19.63 0 0 1 7.226 7.133 19.305 19.305 0 0 1 2.646 9.742c0 8.162-5.163 15.466-12.924 18.285v-24.63l.001-.027c0-.591-.159-1.172-.459-1.684a3.39 3.39 0 0 0-1.253-1.231Zm8.826-13.107a29.873 29.873 0 0 0-.623-.367l-20.98-11.957a3.459 3.459 0 0 0-3.446 0l-25.614 14.593V41.885c0-.099.047-.192.127-.251l21.208-12.072a19.96 19.96 0 0 1 9.865-2.605c10.905 0 19.748 8.725 19.748 19.485a19.356 19.356 0 0 1-.285 3.295Zm-55.484 18.01-8.869-5.053a.311.311 0 0 1-.173-.24V38.287c.005-10.754 8.848-19.472 19.748-19.472a19.925 19.925 0 0 1 12.636 4.51c-.16.086-.439.238-.624.348L119.517 35.63c-.524.294-.959.72-1.262 1.233a3.328 3.328 0 0 0-.462 1.692v.019l-.015 29.173Zm4.817-10.248 11.408-6.502 11.408 6.497v12.999l-11.408 6.497-11.408-6.497V57.5Z"/>
  <mask id="b" width="123" height="123" x="136" y="62" maskUnits="userSpaceOnUse" style="mask-type:alpha">
    <path fill="url(#a)" d="M197.383 62.688c-1.968 32.621-28.074 58.727-60.695 60.695v.234c32.621 1.968 58.727 28.074 60.695 60.695h.234c1.968-32.621 28.074-58.727 60.695-60.695v-.234c-32.621-1.968-58.727-28.074-60.695-60.695h-.234Z"/>
  </mask>
  <g mask="url(#b)">
    <path fill="url(#c)" d="M197.5 54c38.357 0 69.5 31.143 69.5 69.5S235.857 193 197.5 193 128 161.857 128 123.5 159.143 54 197.5 54Z"/>
  </g>
  <path fill="#fff" fill-rule="evenodd" d="m119.605 200.199-.001.001-.01.011.011-.012Zm0 0 42.059-31.023c2.062-1.52 5.009-.927 5.991 1.435 5.171 12.459 2.861 27.431-7.427 37.711-10.288 10.28-24.603 12.534-37.687 7.4l-14.294 6.612c20.501 14.002 45.396 10.539 60.952-5.015 12.339-12.33 16.161-29.136 12.588-44.291l.032.032c-5.182-22.264 1.274-31.163 14.499-49.361l.042-.059c.299-.412.598-.824.897-1.246l-17.403 17.388v-.054l-60.249 60.471Zm-8.303-40.774c-12.555 12.535-15.092 34.27-.377 48.315l-.011.01-40.17 35.856c2.514-3.46 5.629-6.732 8.741-10.001l.122-.128.026-.028c8.887-9.332 17.695-18.581 12.313-31.653-7.211-17.507-3.012-38.024 10.342-51.367 13.883-13.861 34.33-17.356 51.408-10.334 3.779 1.403 7.072 3.398 9.641 5.253l-14.261 6.581c-13.279-5.567-28.49-1.78-37.774 7.496Z" clip-rule="evenodd"/>
  <path fill="#D97757" d="m32.429 136.14 20.442-11.47.342-1-.342-.553h-1l-3.42-.21-11.681-.316-10.13-.421-9.813-.526-2.473-.526-2.315-3.052.237-1.526 2.078-1.394 2.973.263 6.577.447 9.866.684 7.156.421 10.603 1.105h1.684l.237-.684-.58-.421-.446-.421-10.208-6.919-11.05-7.314-5.788-4.21-3.131-2.13-1.578-2-.685-4.367 2.842-3.131 3.815.263.973.263 3.867 2.973 8.262 6.393 10.786 7.945 1.579 1.316.631-.447.08-.316-.711-1.184-5.867-10.603-6.262-10.786-2.788-4.473-.737-2.684c-.263-1.105-.447-2.025-.447-3.157l3.236-4.393L41.032 67l4.314.579 1.816 1.578 2.683 6.13 4.341 9.656 6.735 13.128 1.974 3.894 1.052 3.604.395 1.105h.684v-.631l.552-7.393 1.026-9.077 1-11.681.342-3.289 1.631-3.946 3.236-2.131 2.526 1.21 2.078 2.973-.29 1.92-1.236 8.025-2.42 12.576-1.579 8.419h.921l1.052-1.053 4.263-5.656 7.156-8.945 3.157-3.552 3.683-3.92 2.368-1.868h4.472l3.289 4.893-1.473 5.052-4.604 5.84-3.815 4.947-5.473 7.366-3.42 5.893.316.474.816-.079 12.365-2.631 6.682-1.21 7.972-1.368 3.604 1.684.395 1.71-1.421 3.499-8.524 2.104-9.997 2-14.891 3.525-.184.132.21.263 6.709.631 2.868.158h7.024l13.076.974 3.42 2.262 2.052 2.763-.342 2.105-5.262 2.683-7.103-1.684-16.575-3.946-5.683-1.421h-.789v.474l4.736 4.63 8.682 7.84 10.865 10.103.553 2.499-1.395 1.974-1.473-.211-9.55-7.182-3.683-3.236-8.34-7.025h-.553v.737l1.92 2.815 10.156 15.259.526 4.683-.736 1.526-2.631.921-2.894-.526-5.946-8.34-6.13-9.393-4.946-8.419-.605.343-2.92 31.439-1.369 1.605-3.157 1.21-2.63-2-1.395-3.236 1.394-6.393 1.684-8.34 1.368-6.63 1.236-8.234.737-2.736-.052-.185-.605.079-6.21 8.524-9.445 12.76-7.471 7.998-1.79.711-3.104-1.605.29-2.868 1.736-2.552 10.34-13.154 6.235-8.156 4.025-4.71-.026-.684h-.237l-27.467 17.838-4.893.631-2.105-1.973.263-3.236 1-1.052 8.261-5.683-.026.026Z"/>
  <defs>
    <linearGradient id="a" x1="237.562" x2="152.056" y1="86.622" y2="159.171" gradientUnits="userSpaceOnUse">
      <stop stop-color="#217BFE"/>
      <stop offset=".14" stop-color="#1485FC"/>
      <stop offset=".27" stop-color="#078EFB"/>
      <stop offset=".52" stop-color="#548FFD"/>
      <stop offset=".78" stop-color="#A190FF"/>
      <stop offset=".89" stop-color="#AF94FE"/>
      <stop offset="1" stop-color="#BD99FE"/>
    </linearGradient>
    <linearGradient id="c" x1="180.112" x2="232.65" y1="143.612" y2="89.245" gradientUnits="userSpaceOnUse">
      <stop stop-color="#217BFE"/>
      <stop offset=".14" stop-color="#1485FC"/>
      <stop offset=".27" stop-color="#078EFB"/>
      <stop offset=".52" stop-color="#548FFD"/>
      <stop offset=".78" stop-color="#A190FF"/>
      <stop offset=".89" stop-color="#AF94FE"/>
      <stop offset="1" stop-color="#BD99FE"/>
    </linearGradient>
  </defs>
</svg>
