<svg xmlns="http://www.w3.org/2000/svg" viewBox="0 0 704 704" role="img" aria-label="Masquerade mask logo">
  <title>Masquerade mask logo</title>
  <defs>
    <linearGradient id="maskGrad" x1="0" y1="0" x2="0" y2="1">
      <stop offset="0" stop-color="#FF6926"/>
      <stop offset="1" stop-color="#FFB44C"/>
    </linearGradient>
  </defs>
  <path d="M 22,296.6 C 22,312.9 34,365.3 43.5,391.1 C 90.7,517.8 191.2,567.3 333.8,533.9 L 351.1,529.8 L 366.3,533.4 C 439.5,550.9 498.3,547.2 549.5,522 C 619.1,487.7 664.4,412.7 679.5,306.8 C 681.8,290.5 682,290.7 669.9,296.6 C 630.3,315.9 589.7,324.9 507,332.5 C 440.2,338.7 408.3,348 369.5,372.5 C 351,384.2 351.1,384.2 332.3,372.4 C 311.3,359.2 286.5,348.6 262.5,342.6 C 242.9,337.7 232.6,336.3 187.5,332 C 118.3,325.5 81.4,317.3 37.6,298.9 C 21.2,291.9 22,292.1 22,296.6 M 520.5,422.1 C 516.1,439.2 504.1,451.6 486.1,457.8 C 482.4,459 474.8,459.4 445.8,459.7 L 410,460.2 L 410,457.8 C 410.1,444 418.9,427.4 430.3,419.6 C 441.9,411.6 442,411.6 484,411 L 521.5,410.5 L 521.8,413.1 C 522,414.6 521.4,418.6 520.5,422.1 M 255.6,412.4 C 275.8,417.8 291.9,437.2 292,456.2 L 292,460 L 261.1,460 C 215.8,460 207.7,458.3 194.8,446.2 C 185.7,437.6 181.5,428.8 179.6,414.7 L 179.1,411 L 214.8,411 C 241.8,411 251.8,411.4 255.6,412.4" fill="#8E2265"/>
  <path d="M 38.5,316.2 C 38.7,317.5 40.4,325 42.1,332.8 C 76.1,491 179.4,557.2 333.6,519.5 C 351,515.2 349.3,515.2 370.8,519.9 C 403.1,527.1 415.2,528.8 440.5,529.6 C 556.7,533.7 636.1,460.2 661.4,325.1 C 663.4,314.4 663.5,314.7 660.1,316.4 C 636.9,328.4 586.8,338.7 523.5,344.5 C 445.6,351.6 416.9,359.5 376.5,384.8 C 351.5,400.4 349.4,400.4 321.5,382.9 C 286,360.7 252,351.3 185,345.5 C 122.9,340 79.4,331.2 46.8,317.5 C 37,313.4 37.8,313.5 38.5,316.2 M 257.7,398.5 C 280.6,403.9 298.6,421.4 304.4,443.7 C 306.3,450.9 307.6,466.6 306.6,470.4 L 305.9,473.1 L 260.2,472.8 C 216.2,472.5 214.3,472.4 208,470.3 C 183.3,461.9 168.4,442.8 165.5,415.7 L 164.9,410 L 153.1,410 C 139.9,410 139,409.6 139,403.5 C 139,401.2 139.5,398.9 140.2,398.2 C 142.1,396.3 249.4,396.5 257.7,398.5 M 561.5,403.5 L 561.5,409.5 L 548.9,409.8 L 536.3,410.1 L 535.6,417.1 C 532.9,443.7 515.2,464.4 489.4,471 C 479.8,473.5 396.1,474.1 395.9,471.7 C 393.7,439.5 405.3,415.8 429,404.2 C 443.8,396.9 441.9,397.1 505,397.3 L 561.5,397.5 L 561.5,403.5" fill="url(#maskGrad)"/>
  <path d="M 211.4,229.4 C 214.3,254.8 228.9,296 243.7,321.1 L 248.2,328.6 L 261.3,331.5 C 289.7,337.6 318.3,348.8 341.6,363 C 350,368.2 350.1,368.1 349.4,354.7 C 346,291.9 308.5,252.3 229.9,228.4 C 210.4,222.5 210.6,222.5 211.4,229.4" fill="#FE602E"/>
  <path d="M 341.9,175.7 C 328.3,194.1 318.7,212.5 312,232.9 C 305.8,251.8 305.6,250.5 315.1,257.5 C 324.5,264.5 341.2,281.4 345.5,288.2 C 349.3,294.3 350.1,294.2 354.7,287.3 C 360.8,278 373.4,265.1 384.7,256.3 C 387.9,253.8 390.6,251.7 390.7,251.6 C 391.3,251.1 384.9,229.8 382,222.4 C 375,204.7 353,167 349.7,167 C 348.9,167 345.4,170.9 341.9,175.7" fill="#FE8025"/>
  <path d="M 463.5,230.4 C 407.6,249 376.2,272.2 357.4,308.7 L 353.8,315.7 L 356.4,327.1 C 357.8,333.4 359.4,343.4 360,349.4 C 361.2,362.5 360.9,362.2 366.8,358.7 C 386,347.3 412,337.2 436.8,331.4 L 448,328.8 L 451.9,322.2 C 466,297.9 477.5,265.5 484,231.8 C 485.8,222.3 487.5,222.4 463.5,230.4" fill="#FEA844"/>
</svg>
