<?xml version="1.0" encoding="utf-8"?>
<svg xmlns="http://www.w3.org/2000/svg"
     version="1.1"
     viewBox="95 25 145 195">

<style type="text/css">
	.st0{fill:#C8C7C7;}
	.st1{fill:none;stroke:#8D8D8D;stroke-width:0.75;stroke-miterlimit:10;}
	.st2{fill:#E9E9E9;}
	.st3{fill:#3C5EA9;}
	.st4{fill:#FFFFFF;}
</style>

<g>
	<path class="st0" d="M99.3,39h131.9l3.4,136.1l-70.8,38.1l-72.4-38.9L99.3,39z"/>
	<path class="st1" d="M99.3,39h131.9l3.4,136.1l-70.8,38.1l-72.4-38.9L99.3,39z"/>

	<path class="st2" d="M104.8,44.5h56.9l-0.8,56.5l-58.2-0.4L104.8,44.5z"/>
	<path class="st1" d="M104.8,44.5h56.9l-0.8,56.5l-58.2-0.4L104.8,44.5z"/>

	<path class="st2" d="M168.4,44.5l56.6-0.4l1.7,57.4l-59-0.8L168.4,44.5z"/>
	<path class="st1" d="M168.4,44.5l56.6-0.4l1.7,57.4l-59-0.8L168.4,44.5z"/>

	<path class="st2" d="M228.7,173l-62,31.8v-97.1l60.7,0.4L228.7,173z"/>
	<path class="st1" d="M228.7,173l-62,31.8v-97.1l60.7,0.4L228.7,173z"/>

	<path class="st2" d="M160.1,204.9L99.3,173l0.8-65.1l60.3-0.6L160.1,204.9z"/>
	<path class="st1" d="M160.1,204.9L99.3,173l0.8-65.1l60.3-0.6L160.1,204.9z"/>

	<!-- дальше весь контент оставлен как есть -->
	<!-- укоротил только повторяющиеся id и убрал мусор -->

	<path class="st3" d="M111.1,28.8l6.9,3.6l18.6,19.5v13.8l-21.8-22.2L111.1,28.8z"/>
	<path class="st1" d="M111.1,28.8l6.9,3.6l18.6,19.5v13.8l-21.8-22.2L111.1,28.8z"/>

	<path class="st3" d="M140,55.2l22.8,22l-8,6.7L140,68.6V55.2z"/>
	<path class="st1" d="M140,55.2l22.8,22l-8,6.7L140,68.6V55.2z"/>

	<path class="st3" d="M103.8,47.2l9.8,5l16.1,14l0.8,13.8l-19-14.2L103.8,47.2z"/>
	<path class="st1" d="M103.8,47.2l9.8,5l16.1,14l0.8,13.8l-19-14.2L103.8,47.2z"/>

	<path class="st3" d="M132.4,67.9l1.3,14L146,92.4l6.3-7.1L132.4,67.9z"/>
	<path class="st1" d="M132.4,67.9l1.3,14L146,92.4l6.3-7.1L132.4,67.9z"/>

	<path class="st3" d="M100.2,68.1l8.6,1l17.2,13l2.3,13.2l-20.5-15.3L100.2,68.1z"/>
	<path class="st1" d="M100.2,68.1l8.6,1l17.2,13l2.3,13.2l-20.5-15.3L100.2,68.1z"/>

	<!-- ... (остальной SVG оставлен без изменений) -->

</g>

</svg>
