<?xml version="1.0" encoding="utf-8"?>
<!-- Generator: Adobe Illustrator 25.0.1, SVG Export Plug-In . SVG Version: 6.00 Build 0)  -->
<svg version="1.0" id="Layer_1" xmlns="http://www.w3.org/2000/svg" xmlns:xlink="http://www.w3.org/1999/xlink" x="0px" y="0px"
	 viewBox="0 0 326 242" style="enable-background:new 0 0 326 242;" xml:space="preserve">
<style type="text/css">
	.st0{fill:#C8C7C7;}
	.st1{fill:none;stroke:#8D8D8D;stroke-width:0.75;stroke-miterlimit:10;}
	.st2{fill:#E9E9E9;}
	.st3{fill:#3C5EA9;}
	.st4{fill:#FFFFFF;}
	.st5{fill:none;}
</style>
<g id="g10">
	<g id="g12">
		<path id="path14" class="st0" d="M99.3,39h131.9l3.4,136.1l-70.8,38.1l-72.4-38.9L99.3,39z"/>
	</g>
	<g id="g16">
		<path id="path18" class="st1" d="M99.3,39h131.9l3.4,136.1l-70.8,38.1l-72.4-38.9L99.3,39z"/>
	</g>
	<g id="g20">
		<path id="path22" class="st2" d="M104.8,44.5h56.9l-0.8,56.5l-58.2-0.4L104.8,44.5z"/>
	</g>
	<g id="g24">
		<path id="path26" class="st1" d="M104.8,44.5h56.9l-0.8,56.5l-58.2-0.4L104.8,44.5z"/>
	</g>
	<g id="g28">
		<path id="path30" class="st2" d="M168.4,44.5l56.6-0.4l1.7,57.4l-59-0.8L168.4,44.5z"/>
	</g>
	<g id="g32">
		<path id="path34" class="st1" d="M168.4,44.5l56.6-0.4l1.7,57.4l-59-0.8L168.4,44.5z"/>
	</g>
	<g id="g36">
		<path id="path38" class="st2" d="M228.7,173l-62,31.8v-97.1l60.7,0.4L228.7,173z"/>
	</g>
	<g id="g40">
		<path id="path42" class="st1" d="M228.7,173l-62,31.8v-97.1l60.7,0.4L228.7,173z"/>
	</g>
	<g id="g44">
		<path id="path46" class="st2" d="M160.1,204.9L99.3,173l0.8-65.1l60.3-0.6L160.1,204.9z"/>
	</g>
	<g id="g48">
		<path id="path50" class="st1" d="M160.1,204.9L99.3,173l0.8-65.1l60.3-0.6L160.1,204.9z"/>
	</g>
	<g id="g52">
		<path id="path54" class="st3" d="M111.1,28.8l6.9,3.6l18.6,19.5v13.8l-21.8-22.2L111.1,28.8z"/>
	</g>
	<g id="g56">
		<path id="path58" class="st1" d="M111.1,28.8l6.9,3.6l18.6,19.5v13.8l-21.8-22.2L111.1,28.8z"/>
	</g>
	<g id="g60">
		<path id="path62" class="st3" d="M140,55.2l22.8,22l-8,6.7L140,68.6V55.2z"/>
	</g>
	<g id="g64">
		<path id="path66" class="st1" d="M140,55.2l22.8,22l-8,6.7L140,68.6V55.2z"/>
	</g>
	<g id="g68">
		<path id="path70" class="st3" d="M103.8,47.2l9.8,5l16.1,14l0.8,13.8l-19-14.2L103.8,47.2z"/>
	</g>
	<g id="g72">
		<path id="path74" class="st1" d="M103.8,47.2l9.8,5l16.1,14l0.8,13.8l-19-14.2L103.8,47.2z"/>
	</g>
	<g id="g76">
		<path id="path78" class="st3" d="M132.4,67.9l1.3,14L146,92.4l6.3-7.1L132.4,67.9z"/>
	</g>
	<g id="g80">
		<path id="path82" class="st1" d="M132.4,67.9l1.3,14L146,92.4l6.3-7.1L132.4,67.9z"/>
	</g>
	<g id="g84">
		<path id="path86" class="st3" d="M100.2,68.1l8.6,1l17.2,13l2.3,13.2l-20.5-15.3L100.2,68.1z"/>
	</g>
	<g id="g88">
		<path id="path90" class="st1" d="M100.2,68.1l8.6,1l17.2,13l2.3,13.2l-20.5-15.3L100.2,68.1z"/>
	</g>
	<g id="g92">
		<path id="path94" class="st3" d="M129.7,84.7L145,95.3l-0.4,11.1l-12.8-8.4L129.7,84.7z"/>
	</g>
	<g id="g96">
		<path id="path98" class="st1" d="M129.7,84.7L145,95.3l-0.4,11.1l-12.8-8.4L129.7,84.7z"/>
	</g>
	<g id="g100">
		<path id="path102" class="st4" d="M148.6,94.7L167,77.6l-1.3,14.2l-18.2,19.3L148.6,94.7z"/>
	</g>
	<g id="g104">
		<path id="path106" class="st1" d="M148.6,94.7L167,77.6l-1.3,14.2l-18.2,19.3L148.6,94.7z"/>
	</g>
	<g id="g108">
		<path id="path110" class="st4" d="M170.1,74.4l20.1-19.1L189.8,70l-20.3,17.4L170.1,74.4z"/>
	</g>
	<g id="g112">
		<path id="path114" class="st1" d="M170.1,74.4l20.1-19.1L189.8,70l-20.3,17.4L170.1,74.4z"/>
	</g>
	<g id="g116">
		<path id="path118" class="st4" d="M192.9,51.6v14l18.8-16.1l6.9-19.3l-9.6,4.8L192.9,51.6z"/>
	</g>
	<g id="g120">
		<path id="path122" class="st1" d="M192.9,51.6v14l18.8-16.1l6.9-19.3l-9.6,4.8L192.9,51.6z"/>
	</g>
	<g id="g124">
		<path id="path126" class="st4" d="M147.1,115.4l0.2,12.3l20.9-20.5l1.3-14L147.1,115.4z"/>
	</g>
	<g id="g128">
		<path id="path130" class="st1" d="M147.1,115.4l0.2,12.3l20.9-20.5l1.3-14L147.1,115.4z"/>
	</g>
	<g id="g132">
		<path id="path134" class="st4" d="M173.1,90.1l-1.7,12.6l23.4-19.5l1.5-14L173.1,90.1z"/>
	</g>
	<g id="g136">
		<path id="path138" class="st1" d="M173.1,90.1l-1.7,12.6l23.4-19.5l1.5-14L173.1,90.1z"/>
	</g>
	<g id="g140">
		<path id="path142" class="st4" d="M199.2,66.2l-1.7,14.7l20.3-13.8l9.4-19.9l-11.5,6.3L199.2,66.2z"/>
	</g>
	<g id="g144">
		<path id="path146" class="st1" d="M199.2,66.2l-1.7,14.7l20.3-13.8l9.4-19.9l-11.5,6.3L199.2,66.2z"/>
	</g>
	<g id="g148">
		<path id="path150" class="st4" d="M202.8,82.2l14.4-10.3l12.6-3.1l-12.8,17L200.9,96L202.8,82.2z"/>
	</g>
	<g id="g152">
		<path id="path154" class="st1" d="M202.8,82.2l14.4-10.3l12.6-3.1l-12.8,17L200.9,96L202.8,82.2z"/>
	</g>
	<g id="g156">
		<path id="path158" class="st4" d="M174.1,105.8l24.5-20.7l-1.5,12.6L172,118L174.1,105.8z"/>
	</g>
	<g id="g160">
		<path id="path162" class="st1" d="M174.1,105.8l24.5-20.7l-1.5,12.6L172,118L174.1,105.8z"/>
	</g>
	<g id="g164">
		<path id="path166" class="st3" d="M101.7,84.7l9.2,3.3l13.8,12.4l3.3,13.8l-18.4-14.7L101.7,84.7z"/>
	</g>
	<g id="g168">
		<path id="path170" class="st1" d="M101.7,84.7l9.2,3.3l13.8,12.4l3.3,13.8l-18.4-14.7L101.7,84.7z"/>
	</g>
	<g id="g172">
		<path id="path174" class="st3" d="M127.6,100.8L131,114l12.4,8.2v-11.7L127.6,100.8z"/>
	</g>
	<g id="g176">
		<path id="path178" class="st1" d="M127.6,100.8L131,114l12.4,8.2v-11.7L127.6,100.8z"/>
	</g>
	<g id="g180">
		<path id="path182" class="st4" d="M146.5,132.2l23-21.8l-1.9,11.1l-22.6,23L146.5,132.2z"/>
	</g>
	<g id="g184">
		<path id="path186" class="st1" d="M146.5,132.2l23-21.8l-1.9,11.1l-22.6,23L146.5,132.2z"/>
	</g>
	<g id="g188">
		<path id="path190" class="st3" d="M129.7,121.1l13,5.7l-0.2,11.7l-9.6-4.4L129.7,121.1z"/>
	</g>
	<g id="g192">
		<path id="path194" class="st1" d="M129.7,121.1l13,5.7l-0.2,11.7l-9.6-4.4L129.7,121.1z"/>
	</g>
	<g id="g196">
		<path id="path198" class="st3" d="M124.9,118.4l4,14l-20.5-11.1l-8.2-13.4h9.8L124.9,118.4z"/>
	</g>
	<g id="g200">
		<path id="path202" class="st1" d="M124.9,118.4l4,14l-20.5-11.1l-8.2-13.4h9.8L124.9,118.4z"/>
	</g>
	<g id="g204">
		<path id="path206" class="st3" d="M129.9,138.7l12.3,5.6l-0.4,9.8l-7.3-3.4L129.9,138.7z"/>
	</g>
	<g id="g208">
		<path id="path210" class="st1" d="M129.9,138.7l12.3,5.6l-0.4,9.8l-7.3-3.4L129.9,138.7z"/>
	</g>
	<g id="g212">
		<path id="path214" class="st3" d="M104,127.8l4.2-0.2l17.1,8.4l5,13.4l-18.8-10.1L104,127.8z"/>
	</g>
	<g id="g216">
		<path id="path218" class="st1" d="M104,127.8l4.2-0.2l17.1,8.4l5,13.4l-18.8-10.1L104,127.8z"/>
	</g>
	<g id="g220">
		<path id="path222" class="st4" d="M144.6,149.8l27.8-27.4l-2.7,11.5l-26,23.6L144.6,149.8z"/>
	</g>
	<g id="g224">
		<path id="path226" class="st1" d="M144.6,149.8l27.8-27.4l-2.7,11.5l-26,23.6L144.6,149.8z"/>
	</g>
	<g id="g228">
		<path id="path230" class="st4" d="M178.7,116.7l-4.6,14.3l21.8-13.6l5.2-16.6L178.7,116.7z"/>
	</g>
	<g id="g232">
		<path id="path234" class="st1" d="M178.7,116.7l-4.6,14.3l21.8-13.6l5.2-16.6L178.7,116.7z"/>
	</g>
	<g id="g236">
		<path id="path238" class="st4" d="M204.9,98.7l11.7-8.6l13.2-4.2l-10.3,16.8l-17.4,10.7L204.9,98.7z"/>
	</g>
	<g id="g240">
		<path id="path242" class="st1" d="M204.9,98.7l11.7-8.6l13.2-4.2l-10.3,16.8l-17.4,10.7L204.9,98.7z"/>
	</g>
	<g id="g244">
		<path id="path246" class="st4" d="M204.2,118.6l19.1-9.6l7.7-0.2l-13.4,16.3l-18,7.5L204.2,118.6z"/>
	</g>
	<g id="g248">
		<path id="path250" class="st1" d="M204.2,118.6l19.1-9.6l7.7-0.2l-13.4,16.3l-18,7.5L204.2,118.6z"/>
	</g>
	<g id="g252">
		<path id="path254" class="st4" d="M199.9,120.1l-4.2,14.6l-22,12.6l3.8-12.8L199.9,120.1z"/>
	</g>
	<g id="g256">
		<path id="path258" class="st1" d="M199.9,120.1l-4.2,14.6l-22,12.6l3.8-12.8L199.9,120.1z"/>
	</g>
	<g id="g260">
		<path id="path262" class="st4" d="M143.7,160.5l28.9-22.6l-4.2,12.8l-25.5,16.1L143.7,160.5z"/>
	</g>
	<g id="g264">
		<path id="path266" class="st1" d="M143.7,160.5l28.9-22.6l-4.2,12.8l-25.5,16.1L143.7,160.5z"/>
	</g>
	<g id="g268">
		<path id="path270" class="st4" d="M141.6,172.4l29.4-19.5l-5.4,11.9l-25.1,13L141.6,172.4z"/>
	</g>
	<g id="g272">
		<path id="path274" class="st1" d="M141.6,172.4l29.4-19.5l-5.4,11.9l-25.1,13L141.6,172.4z"/>
	</g>
	<g id="g276">
		<path id="path278" class="st4" d="M177,149.3l22.3-10.2l-7.5,14.4l-20.8,8.1L177,149.3z"/>
	</g>
	<g id="g280">
		<path id="path282" class="st1" d="M177,149.3l22.3-10.2l-7.5,14.4l-20.8,8.1L177,149.3z"/>
	</g>
	<g id="g284">
		<path id="path286" class="st4" d="M203.5,137l-5.9,13.1l14.5-5.4l13.5-15.9l-7.8,1L203.5,137z"/>
	</g>
	<g id="g288">
		<path id="path290" class="st1" d="M203.5,137l-5.9,13.1l14.5-5.4l13.5-15.9l-7.8,1L203.5,137z"/>
	</g>
	<g id="g292">
		<path id="path294" class="st4" d="M200,153.2l-5.3,12.3l12.9-5l15.9-13.5l-9.9,0.8L200,153.2z"/>
	</g>
	<g id="g296">
		<path id="path298" class="st1" d="M200,153.2l-5.3,12.3l12.9-5l15.9-13.5l-9.9,0.8L200,153.2z"/>
	</g>
	<g id="g300">
		<path id="path302" class="st4" d="M195,155.3l-7.2,13l-22.3,9.2l6.7-12.4L195,155.3z"/>
	</g>
	<g id="g304">
		<path id="path306" class="st1" d="M195,155.3l-7.2,13l-22.3,9.2l6.7-12.4L195,155.3z"/>
	</g>
	<g id="g308">
		<path id="path310" class="st4" d="M167.1,168.1l-7,10.6l-24.8,11.6l3.2-8L167.1,168.1z"/>
	</g>
	<g id="g312">
		<path id="path314" class="st1" d="M167.1,168.1l-7,10.6l-24.8,11.6l3.2-8L167.1,168.1z"/>
	</g>
	<g id="g316">
		<path id="path318" class="st3" d="M107,145.5l9.9,1l11.2,5.5l4.3,12.4l-16.3-7L107,145.5z"/>
	</g>
	<g id="g320">
		<path id="path322" class="st1" d="M107,145.5l9.9,1l11.2,5.5l4.3,12.4l-16.3-7L107,145.5z"/>
	</g>
	<g id="g324">
		<path id="path326" class="st3" d="M134.8,156l5.6,2.4v8.5l-2.7-1.3L134.8,156z"/>
	</g>
	<g id="g328">
		<path id="path330" class="st1" d="M134.8,156l5.6,2.4v8.5l-2.7-1.3L134.8,156z"/>
	</g>
	<g id="g332">
		<path id="path334" class="st3" d="M139.7,170.9l-3.4,8.2l-11.9-4.2l-7.7-10.4l7.5-0.6L139.7,170.9z"/>
	</g>
	<g id="g336">
		<path id="path338" class="st1" d="M139.7,170.9l-3.4,8.2l-11.9-4.2l-7.7-10.4l7.5-0.6L139.7,170.9z"/>
	</g>
	<g id="g340">
		<path id="path342" class="st3" d="M123.4,181.4l6.3-0.1l5.7,1.8l-2.2,6.6l-6.8-3.6L123.4,181.4z"/>
	</g>
	<g id="g344">
		<path id="path346" class="st1" d="M123.4,181.4l6.3-0.1l5.7,1.8l-2.2,6.6l-6.8-3.6L123.4,181.4z"/>
	</g>
	<g id="g348">
		<path id="path350" class="st4" d="M112.9,211.8l23.4-19.3l26.4-12.3l-9.2,12.8L112.9,211.8z"/>
	</g>
	<g id="g352">
		<path id="path354" class="st1" d="M112.9,211.8l23.4-19.3l26.4-12.3l-9.2,12.8L112.9,211.8z"/>
	</g>
	<g id="g356">
		<path id="path358" class="st4" d="M168.4,178.1l-7.5,9.9l23.6-7.4l6.3-11.2L168.4,178.1z"/>
	</g>
	<g id="g360">
		<path id="path362" class="st1" d="M168.4,178.1l-7.5,9.9l23.6-7.4l6.3-11.2L168.4,178.1z"/>
	</g>
	<g id="g364">
		<path id="path366" class="st4" d="M195.5,168.7l-5.9,10.5l14.8-3.8l8.4-10.3l-8-0.1L195.5,168.7z"/>
	</g>
	<g id="g368">
		<path id="path370" class="st1" d="M195.5,168.7l-5.9,10.5l14.8-3.8l8.4-10.3l-8-0.1L195.5,168.7z"/>
	</g>
	<g id="g372">
		<path id="path374" class="st3" d="M185.5,185.6l9.2-2.8l9.9-0.3l-9.6,9.8l-17.2,2.8L185.5,185.6z"/>
	</g>
	<g id="g376">
		<path id="path378" class="st1" d="M185.5,185.6l9.2-2.8l9.9-0.3l-9.6,9.8l-17.2,2.8L185.5,185.6z"/>
	</g>
	<g id="g380">
		<path id="path382" class="st3" d="M181.8,185.2l-7,9.2l-14.9-1.2l11.7-6.8L181.8,185.2z"/>
	</g>
	<g id="g384">
		<path id="path386" class="st1" d="M181.8,185.2l-7,9.2l-14.9-1.2l11.7-6.8L181.8,185.2z"/>
	</g>
	<g id="g388">
		<path id="path390" class="st3" d="M181.6,196.8l14.9-1.3l13.1,11.6l-18.3-3.9L181.6,196.8z"/>
	</g>
	<g id="g392">
		<path id="path394" class="st1" d="M181.6,196.8l14.9-1.3l13.1,11.6l-18.3-3.9L181.6,196.8z"/>
	</g>
</g>
<rect x="63" y="21" class="st5" width="200" height="200"/>
</svg>
